<svg width="22" height="22" viewBox="0 0 22 22" fill="none" xmlns="http://www.w3.org/2000/svg">
<circle cx="11" cy="11" r="11" fill="#551CCD"/>
<path d="M6.176 17C5.93067 17 5.71733 16.9093 5.536 16.728C5.35467 16.5467 5.264 16.3333 5.264 16.088V6.232C5.264 5.98667 5.35467 5.77333 5.536 5.592C5.71733 5.41067 5.93067 5.32 6.176 5.32H6.576C6.85333 5.32 7.10933 5.39467 7.344 5.544C7.57867 5.69333 7.74933 5.89067 7.856 6.136L10.656 12.184C10.656 12.1947 10.6613 12.2 10.672 12.2C10.6827 12.2 10.688 12.1947 10.688 12.184L13.488 6.136C13.5947 5.89067 13.7653 5.69333 14 5.544C14.2347 5.39467 14.4907 5.32 14.768 5.32H15.232C15.4773 5.32 15.6907 5.41067 15.872 5.592C16.0533 5.77333 16.144 5.98667 16.144 6.232V16.088C16.144 16.3333 16.0533 16.5467 15.872 16.728C15.6907 16.9093 15.4773 17 15.232 17H14.88C14.6347 17 14.4213 16.9093 14.24 16.728C14.0587 16.5467 13.968 16.3333 13.968 16.088V9.128C13.968 9.11733 13.9627 9.112 13.952 9.112C13.9413 9.112 13.936 9.11733 13.936 9.128L12.016 13.24C11.8987 13.4853 11.7173 13.688 11.472 13.848C11.2373 13.9973 10.9867 14.072 10.72 14.072H10.624C10.3573 14.072 10.1013 13.9973 9.856 13.848C9.62133 13.688 9.44533 13.4853 9.328 13.24L7.408 9.128C7.408 9.11733 7.40267 9.112 7.392 9.112C7.38133 9.112 7.376 9.11733 7.376 9.128V16.088C7.376 16.3333 7.28533 16.5467 7.104 16.728C6.92267 16.9093 6.70933 17 6.464 17H6.176Z" fill="white"/>
</svg>
