<svg width="22" height="22" viewBox="0 0 22 22" fill="none" xmlns="http://www.w3.org/2000/svg">
<circle cx="11" cy="11" r="11" fill="#23D1BC"/>
<path d="M7.584 18C7.29267 18 7.03933 17.8923 6.824 17.677C6.60867 17.4617 6.501 17.2083 6.501 16.917V5.213C6.501 4.92167 6.60867 4.66833 6.824 4.453C7.03933 4.23767 7.29267 4.13 7.584 4.13H14.044C14.3353 4.13 14.5887 4.23767 14.804 4.453C15.0193 4.66833 15.127 4.92167 15.127 5.213C15.127 5.50433 15.0193 5.75767 14.804 5.973C14.5887 6.17567 14.3353 6.277 14.044 6.277H9.332C9.218 6.277 9.161 6.334 9.161 6.448V9.507C9.161 9.621 9.218 9.678 9.332 9.678H13.721C14.0123 9.678 14.253 9.77933 14.443 9.982C14.6457 10.1847 14.747 10.4253 14.747 10.704C14.747 10.9827 14.6457 11.2233 14.443 11.426C14.253 11.616 14.0123 11.711 13.721 11.711H9.332C9.218 11.711 9.161 11.768 9.161 11.882V15.682C9.161 15.796 9.218 15.853 9.332 15.853H14.044C14.3353 15.853 14.5887 15.9607 14.804 16.176C15.0193 16.3787 15.127 16.6257 15.127 16.917C15.127 17.2083 15.0193 17.4617 14.804 17.677C14.5887 17.8923 14.3353 18 14.044 18H7.584Z" fill="white"/>
</svg>
