<svg width="22" height="22" viewBox="0 0 22 22" fill="none" xmlns="http://www.w3.org/2000/svg">
<circle cx="11" cy="11" r="11" fill="#5AEBFF"/>
<path d="M11.092 18.18C9.16 18.18 7.594 17.58 6.394 16.38C5.206 15.168 4.612 13.518 4.612 11.43C4.612 9.318 5.206 7.668 6.394 6.48C7.582 5.28 9.226 4.68 11.326 4.68C12.19 4.68 12.976 4.74 13.684 4.86C13.972 4.908 14.212 5.052 14.404 5.292C14.596 5.52 14.692 5.784 14.692 6.084V6.156C14.692 6.408 14.59 6.612 14.386 6.768C14.182 6.924 13.954 6.972 13.702 6.912C12.994 6.756 12.292 6.678 11.596 6.678C10.144 6.678 9.04 7.08 8.284 7.884C7.54 8.676 7.168 9.858 7.168 11.43C7.168 12.954 7.534 14.13 8.266 14.958C9.01 15.774 10.012 16.182 11.272 16.182C11.788 16.182 12.298 16.11 12.802 15.966C12.898 15.942 12.946 15.876 12.946 15.768V12.204C12.946 12.096 12.898 12.042 12.802 12.042H10.552C10.288 12.042 10.06 11.952 9.868 11.772C9.688 11.58 9.598 11.352 9.598 11.088C9.598 10.812 9.688 10.584 9.868 10.404C10.06 10.212 10.288 10.116 10.552 10.116H14.332C14.608 10.116 14.848 10.218 15.052 10.422C15.256 10.626 15.358 10.866 15.358 11.142V16.38C15.358 16.692 15.268 16.974 15.088 17.226C14.908 17.478 14.674 17.646 14.386 17.73C13.366 18.03 12.268 18.18 11.092 18.18Z" fill="white"/>
</svg>
